<svg width="96" height="24" viewBox="0 0 96 24" fill="none" xmlns="http://www.w3.org/2000/svg">
<path d="M95.9022 3.98578C95.3822 4.0155 94.9958 4.09722 94.7433 4.23095C94.4907 4.34981 94.3198 4.55783 94.2306 4.85499C94.1415 5.1373 94.0969 5.56075 94.0969 6.12537V19.4309H93.5843L84.2236 4.96643V16.7341C84.2236 17.3136 84.2682 17.7445 84.3574 18.0268C84.4614 18.3091 84.6545 18.5171 84.9368 18.6508C85.2191 18.7697 85.6575 18.844 86.2518 18.8737V19.3195C85.7169 19.2749 84.9591 19.2526 83.9785 19.2526C83.087 19.2526 82.3961 19.2749 81.9058 19.3195V18.8737C82.4258 18.844 82.8121 18.7697 83.0647 18.6508C83.3173 18.5171 83.4882 18.3091 83.5773 18.0268C83.6665 17.7296 83.711 17.2987 83.711 16.7341V5.90249C83.711 5.33788 83.6665 4.92928 83.5773 4.67669C83.4882 4.4241 83.3173 4.25323 83.0647 4.16408C82.827 4.07493 82.4407 4.0155 81.9058 3.98578V3.54004C82.3961 3.58461 83.087 3.6069 83.9785 3.6069C84.6471 3.6069 85.2266 3.58461 85.7169 3.54004L93.5843 15.6643V6.12537C93.5843 5.5459 93.5323 5.11501 93.4283 4.8327C93.3392 4.5504 93.1534 4.34981 92.8711 4.23095C92.5888 4.09722 92.1505 4.0155 91.5562 3.98578V3.54004C92.0911 3.58461 92.8488 3.6069 93.8295 3.6069C94.721 3.6069 95.4119 3.58461 95.9022 3.54004V3.98578Z" fill="#181818"/>
<path d="M79.7353 16.4667C79.7353 17.3136 79.7873 18.2645 79.8913 19.3195C78.881 19.2749 77.1797 19.2526 74.7875 19.2526C71.9348 19.2526 69.7803 19.2749 68.3242 19.3195V18.8737C68.8591 18.844 69.2454 18.7846 69.4832 18.6954C69.7357 18.6063 69.9066 18.4354 69.9958 18.1828C70.0849 17.9302 70.1295 17.5216 70.1295 16.957V5.90249C70.1295 5.33788 70.0849 4.92928 69.9958 4.67669C69.9066 4.4241 69.7357 4.25323 69.4832 4.16408C69.2454 4.07493 68.8591 4.0155 68.3242 3.98578V3.54004C69.7803 3.58461 71.9348 3.6069 74.7875 3.6069C76.9717 3.6069 78.5244 3.58461 79.4456 3.54004C79.3416 4.52068 79.2896 5.39731 79.2896 6.16994C79.2896 6.74941 79.3119 7.21002 79.3564 7.55175H78.8438C78.7398 6.58597 78.6061 5.87278 78.4427 5.41217C78.2792 4.93671 78.0043 4.59497 77.618 4.38696C77.2317 4.16408 76.6448 4.05265 75.8573 4.05265H74.0075C73.4726 4.05265 73.0788 4.09722 72.8263 4.18637C72.5885 4.26066 72.4251 4.4241 72.3359 4.67669C72.2468 4.92928 72.2022 5.33788 72.2022 5.90249V11.1623H73.6732C74.1932 11.1623 74.5944 11.0434 74.8767 10.8057C75.159 10.5531 75.3447 10.2634 75.4339 9.9365C75.5379 9.59476 75.6196 9.1713 75.679 8.66612L75.7459 8.22037H76.2585C76.2139 8.84442 76.1916 9.54275 76.1916 10.3154V11.3852C76.1916 12.1429 76.2362 13.1979 76.3254 14.55H75.8128C75.7979 14.446 75.7533 14.0894 75.679 13.4802C75.6047 12.8561 75.3967 12.3881 75.055 12.0761C74.7281 11.7641 74.2675 11.608 73.6732 11.608H72.2022V16.957C72.2022 17.5216 72.2468 17.9302 72.3359 18.1828C72.4251 18.4354 72.5885 18.6063 72.8263 18.6954C73.0788 18.7697 73.4726 18.8068 74.0075 18.8068H75.6345C76.5557 18.8068 77.254 18.688 77.7295 18.4502C78.2198 18.1977 78.5764 17.8039 78.7993 17.269C79.0221 16.7193 79.1856 15.9169 79.2896 14.862H79.8022C79.7576 15.2632 79.7353 15.7981 79.7353 16.4667Z" fill="#181818"/>
<path d="M65.8755 3.6069C66.5441 3.6069 67.1013 3.58461 67.5471 3.54004V3.98578C66.8041 4.16408 66.2172 4.81042 65.7864 5.92478L60.5488 19.4309H60.3705H60.1922L54.7541 5.41217C54.3975 4.49096 53.8849 4.0155 53.2163 3.98578V3.54004C53.8106 3.58461 54.6056 3.6069 55.6011 3.6069C56.8789 3.6069 57.8298 3.58461 58.4538 3.54004V3.98578C57.8892 4.0155 57.4806 4.08979 57.228 4.20866C56.9903 4.31267 56.8714 4.51325 56.8714 4.81042C56.8714 5.06301 56.9606 5.41217 57.1389 5.85792L61.1729 16.5781L64.8057 7.15058C65.1029 6.34824 65.2515 5.73905 65.2515 5.32302C65.2515 4.86242 65.088 4.52811 64.7611 4.3201C64.4491 4.11208 63.9662 4.00064 63.3125 3.98578V3.54004C64.1594 3.58461 65.0137 3.6069 65.8755 3.6069Z" fill="#181818"/>
<path d="M53.0585 17.4473C53.4151 18.3685 53.9277 18.844 54.5964 18.8737V19.3194C54.002 19.2749 53.2071 19.2526 52.2116 19.2526C50.9338 19.2526 49.9829 19.2749 49.3588 19.3194V18.8737C49.9235 18.844 50.3246 18.7771 50.5624 18.6731C50.8149 18.5542 50.9412 18.3462 50.9412 18.0491C50.9412 17.7965 50.8521 17.4473 50.6738 17.0016L49.3143 13.3464H43.9207L43.007 15.7089C42.7098 16.5112 42.5612 17.1204 42.5612 17.5365C42.5612 17.9971 42.7172 18.3314 43.0293 18.5394C43.3561 18.7474 43.8465 18.8588 44.5002 18.8737V19.3194C43.6533 19.2749 42.7989 19.2526 41.9372 19.2526C41.2686 19.2526 40.7114 19.2749 40.2656 19.3194V18.8737C41.0085 18.6954 41.5954 18.0491 42.0263 16.9347L47.2638 3.42859H47.6204L53.0585 17.4473ZM49.136 12.9007L46.6398 6.23679L44.099 12.9007H49.136Z" fill="#181818"/>
<path d="M39.4891 3.98578C38.9542 4.0155 38.5605 4.07493 38.3079 4.16408C38.0701 4.25323 37.9067 4.4241 37.8176 4.67669C37.7284 4.92928 37.6838 5.33788 37.6838 5.90249V16.957C37.6838 17.5216 37.7284 17.9302 37.8176 18.1828C37.9067 18.4354 38.0701 18.6063 38.3079 18.6954C38.5605 18.7846 38.9542 18.844 39.4891 18.8737V19.3195C38.8651 19.2749 37.9141 19.2526 36.6363 19.2526C35.4328 19.2526 34.4893 19.2749 33.8058 19.3195V18.8737C34.3407 18.844 34.727 18.7846 34.9648 18.6954C35.2174 18.6063 35.3882 18.4354 35.4774 18.1828C35.5665 17.9302 35.6111 17.5216 35.6111 16.957V11.608H28.3677V16.957C28.3677 17.5216 28.4123 17.9302 28.5015 18.1828C28.5906 18.4354 28.7541 18.6063 28.9918 18.6954C29.2444 18.7846 29.6381 18.844 30.173 18.8737V19.3195C29.4895 19.2749 28.546 19.2526 27.3425 19.2526C26.0647 19.2526 25.1138 19.2749 24.4897 19.3195V18.8737C25.0246 18.844 25.411 18.7846 25.6487 18.6954C25.9013 18.6063 26.0721 18.4354 26.1613 18.1828C26.2504 17.9302 26.295 17.5216 26.295 16.957V5.90249C26.295 5.33788 26.2504 4.92928 26.1613 4.67669C26.0721 4.4241 25.9013 4.25323 25.6487 4.16408C25.411 4.07493 25.0246 4.0155 24.4897 3.98578V3.54004C25.1138 3.58461 26.0647 3.6069 27.3425 3.6069C28.5312 3.6069 29.4747 3.58461 30.173 3.54004V3.98578C29.6381 4.0155 29.2444 4.07493 28.9918 4.16408C28.7541 4.25323 28.5906 4.4241 28.5015 4.67669C28.4123 4.92928 28.3677 5.33788 28.3677 5.90249V11.1623H35.6111V5.90249C35.6111 5.33788 35.5665 4.92928 35.4774 4.67669C35.3882 4.4241 35.2174 4.25323 34.9648 4.16408C34.727 4.07493 34.3407 4.0155 33.8058 3.98578V3.54004C34.4893 3.58461 35.4328 3.6069 36.6363 3.6069C37.9141 3.6069 38.8651 3.58461 39.4891 3.54004V3.98578Z" fill="#181818"/>
<path fill-rule="evenodd" clip-rule="evenodd" d="M0 0H18.6122L18.6122 24L0 24V0ZM0.656903 6.02844V0.682464H11.2768V6.02844H0.656903ZM11.2768 6.7109V12.2844H11.9337V0.682464H17.9553L17.9553 6.02844H15.5467V6.7109H17.9553V17.2891H7.33541L7.33541 11.7156H6.67851L6.67851 23.3175H0.656903L0.656902 17.9716H3.06555V17.2891H0.656902L0.656903 6.7109H11.2768ZM17.9553 17.9716V23.3175L7.33541 23.3175V17.9716L17.9553 17.9716Z" fill="#CDBB88"/>
</svg>
